<?xml version="1.0" standalone="no"?>
<!DOCTYPE svg PUBLIC "-//W3C//DTD SVG 20010904//EN"
 "http://www.w3.org/TR/2001/REC-SVG-20010904/DTD/svg10.dtd">
<svg version="1.0" xmlns="http://www.w3.org/2000/svg"
 width="700.000000pt" height="700.000000pt" viewBox="0 0 700.000000 700.000000"
 preserveAspectRatio="xMidYMid meet">
<metadata>
Created by potrace 1.14, written by Peter Selinger 2001-2017
</metadata>
<g transform="translate(0.000000,700.000000) scale(0.100000,-0.100000)"
fill="#000000" stroke="none">
<path d="M3238 6995 c-1 -1 -41 -6 -88 -9 -92 -8 -129 -12 -175 -20 -16 -3
-50 -8 -75 -11 -25 -3 -54 -7 -65 -9 -210 -44 -352 -82 -495 -131 -99 -34
-130 -47 -255 -98 -55 -23 -280 -137 -360 -182 -136 -77 -433 -293 -545 -395
-303 -279 -505 -524 -697 -845 -209 -350 -380 -823 -437 -1210 -4 -22 -8 -53
-11 -70 -23 -146 -30 -270 -30 -495 0 -189 8 -346 20 -421 2 -13 6 -42 9 -64
75 -574 316 -1156 672 -1626 136 -180 324 -383 483 -521 253 -222 559 -416
901 -571 187 -86 511 -182 780 -232 81 -15 249 -34 361 -41 173 -11 554 -4
578 10 3 2 37 7 76 11 232 23 580 112 827 211 439 175 818 425 1154 759 335
334 548 642 748 1087 91 202 189 524 230 753 3 17 8 41 10 55 3 14 8 45 11 70
3 25 7 56 10 69 2 13 7 58 10 100 4 42 8 96 11 121 6 63 5 392 -1 470 -9 118
-21 219 -35 300 -5 30 -12 73 -16 95 -3 22 -17 87 -30 145 -14 58 -27 114 -29
125 -15 70 -92 301 -130 390 -7 17 -23 55 -35 85 -25 63 -111 237 -160 326
-281 505 -708 952 -1210 1264 -121 75 -350 194 -441 230 -30 12 -67 28 -84 35
-53 24 -302 109 -351 120 -10 2 -44 11 -74 19 -30 8 -66 17 -80 20 -14 2 -70
13 -125 24 -89 18 -195 34 -327 48 -51 6 -524 14 -530 9z"/>
</g>
</svg>
